<svg xmlns="http://www.w3.org/2000/svg" width="21" height="21" viewBox="0 0 21 21" fill="none">
    <g clip-path="url(#clip0_2206_609)">
        <path d="M8.51763 17.0624C6.46749 17.0624 4.79883 15.3938 4.79883 13.3436V4.375H3.26763C1.94023 4.375 0.861328 5.45374 0.861328 6.78114V18.5936C0.861328 19.921 1.94023 20.9999 3.26763 20.9999H14.205C15.5324 20.9999 16.6113 19.921 16.6113 18.5936V17.0624H8.51763Z" fill="#F43D63"/>
        <path d="M20.1113 2.4063C20.1113 1.07714 19.0341 0 17.7051 0H8.51763C7.18847 0 6.11133 1.07714 6.11133 2.4063V13.3437C6.11133 14.6729 7.18847 15.75 8.51763 15.75H17.7051C19.0341 15.75 20.1113 14.6729 20.1113 13.3437V2.4063Z" fill="#F43D63"/>
    </g>
    <defs>
        <clipPath id="clip0_2206_609">
            <rect width="21" height="21" fill="white"/>
        </clipPath>
    </defs>
</svg>