<svg width="339" height="43" viewBox="0 0 339 43" fill="none" xmlns="http://www.w3.org/2000/svg">
    <path d="M72.9389 36.3844H76.6696C78.1466 36.3844 79.331 36.1339 80.226 35.6269C81.1193 35.1197 81.8282 34.283 82.3544 33.1123C82.8755 31.9437 83.2291 30.4039 83.4017 28.4945C83.5777 26.5852 83.664 24.2084 83.664 21.3643C83.664 18.9854 83.5878 16.9029 83.4305 15.1105C83.2765 13.3158 82.9551 11.8281 82.4712 10.6386C81.9839 9.44926 81.2648 8.552 80.3123 7.94886C79.3614 7.34589 78.0874 7.0433 76.4936 7.0433H72.9389V36.3864V36.3844ZM64.5453 0.8479H78.3006C81.2175 0.8479 83.5692 1.32574 85.3559 2.27937C87.1155 3.20674 88.5638 4.62938 89.5231 6.37146C90.5129 8.145 91.1862 10.2776 91.5331 12.7713C91.885 15.2669 92.0593 18.0506 92.0593 21.1306C92.0593 24.7927 91.8359 27.9792 91.3893 30.6875C90.9409 33.3961 90.1728 35.6269 89.0866 37.3796C88.0477 39.0888 86.5267 40.4518 84.7146 41.2965C82.8891 42.1519 80.5745 42.5818 77.7778 42.5818H64.5453V0.8479ZM114.968 26.8585L110.946 8.0949H110.829L106.808 26.8585H114.968ZM116.076 0.8479L127.094 42.5818H118.35L116.426 33.755H105.349L103.429 42.5818H94.6834L105.701 0.8479H116.078H116.076ZM138.403 19.7283H142.135C143.803 19.7283 145.155 19.2213 146.187 18.2071C147.214 17.1951 147.73 15.6175 147.73 13.4744C147.73 11.369 147.283 9.77063 146.388 8.68129C145.495 7.59009 144 7.0433 141.902 7.0433H138.403V19.7283ZM130.011 0.8479H144.698C146.837 0.8479 148.634 1.20889 150.092 1.92879C151.549 2.6508 152.725 3.59607 153.618 4.76463C154.513 5.93315 155.153 7.26872 155.542 8.76895C155.931 10.2693 156.125 11.7989 156.125 13.3556C156.125 15.5006 155.804 17.3703 155.163 18.9688C154.522 20.565 153.628 21.8693 152.481 22.8835C151.332 23.8975 149.947 24.657 148.312 25.1642C146.681 25.6712 144.874 25.9237 142.893 25.9237H138.403V42.5818H130.011V0.8479ZM168.657 19.7283H172.39C174.058 19.7283 175.41 19.2213 176.44 18.2071C177.469 17.1951 177.985 15.6175 177.985 13.4744C177.985 11.369 177.538 9.77063 176.645 8.68129C175.75 7.59009 174.254 7.0433 172.156 7.0433H168.657V19.7283ZM160.264 0.8479H174.953C177.092 0.8479 178.889 1.20889 180.345 1.92879C181.804 2.6508 182.98 3.59607 183.871 4.76463C184.766 5.93315 185.407 7.26872 185.797 8.76895C186.186 10.2693 186.379 11.7989 186.379 13.3556C186.379 15.5006 186.059 17.3703 185.418 18.9688C184.776 20.565 183.881 21.8693 182.738 22.8835C181.589 23.8975 180.2 24.657 178.569 25.1642C176.934 25.6712 175.129 25.9237 173.146 25.9237H168.657V42.5818H160.264V0.8479Z" fill="white"/>
    <path d="M211.598 29.3657V30.553C211.598 31.4921 211.673 32.3498 211.823 33.1198C211.974 33.8918 212.255 34.5428 212.668 35.0708C213.081 35.5966 213.634 36.0099 214.329 36.3125C215.026 36.6128 215.898 36.7652 216.948 36.7652C218.188 36.7652 219.307 36.3604 220.3 35.5508C221.296 34.7412 221.794 33.489 221.794 31.7947C221.794 30.8912 221.672 30.1107 221.428 29.4513C221.181 28.792 220.779 28.1994 220.215 27.6714C219.652 27.1456 218.913 26.6656 217.99 26.2316C217.072 25.7997 215.935 25.3551 214.583 24.9044C212.971 24.3829 211.406 23.7217 209.908 22.9283C208.678 22.2783 207.565 21.4295 206.612 20.4159C205.731 19.4584 205.069 18.3215 204.67 17.0835C204.257 15.821 204.051 14.3624 204.051 12.7056C204.051 8.71583 205.157 5.74231 207.374 3.78291C209.588 1.82767 212.63 0.846924 216.498 0.846924C218.3 0.846924 219.962 1.04516 221.484 1.43954C223.005 1.83601 224.318 2.47453 225.428 3.35931C226.533 4.24406 227.398 5.37505 228.018 6.74802C228.638 8.12319 228.947 9.76963 228.947 11.6894V12.8204H221.173C221.173 10.9006 220.836 9.42119 220.159 8.38617C219.484 7.35116 218.358 6.83365 216.781 6.83365C215.879 6.83365 215.128 6.96514 214.527 7.23016C213.972 7.45963 213.481 7.81705 213.092 8.27346C212.734 8.70788 212.482 9.22031 212.358 9.76963C212.226 10.333 212.162 10.9174 212.162 11.5225C212.162 12.764 212.424 13.8073 212.95 14.6546C213.475 15.5018 214.602 16.2821 216.329 16.998L222.582 19.7106C224.122 20.3867 225.379 21.092 226.355 21.8265C227.332 22.5611 228.11 23.3499 228.692 24.1991C229.277 25.0463 229.68 25.977 229.905 26.9953C230.13 28.0115 230.242 29.1405 230.242 30.3819C230.242 34.6388 229.012 37.7335 226.552 39.672C224.092 41.6126 220.667 42.5808 216.273 42.5808C211.691 42.5808 208.416 41.5833 206.443 39.5884C204.472 37.5915 203.487 34.7307 203.487 31.0039V29.3657H211.598ZM257.844 1.63987V8.30274H249.056V41.961H240.945V8.30054H232.157V1.63987H257.844ZM275.023 26.7699L271.137 8.64289H271.024L267.137 26.7699H275.023ZM276.093 1.63987L286.74 41.961H278.29L276.431 33.4349H265.73L263.87 41.961H255.421L266.066 1.63987H276.093ZM310.002 1.63987V8.30274H301.216V41.961H293.105V8.30054H284.317V1.63987H310.002ZM320.028 29.3679V30.5552C320.028 31.4941 320.105 32.3518 320.253 33.1218C320.404 33.8938 320.687 34.545 321.099 35.0728C321.512 35.5988 322.065 36.0119 322.759 36.3145C323.456 36.6149 324.329 36.7674 325.38 36.7674C326.618 36.7674 327.737 36.3624 328.73 35.5528C329.728 34.7432 330.224 33.4912 330.224 31.7967C330.224 30.8932 330.104 30.1129 329.859 29.4534C329.613 28.7941 329.211 28.2014 328.647 27.6734C328.084 27.1476 327.343 26.6677 326.424 26.2336C325.502 25.8017 324.366 25.3573 323.015 24.9065C321.402 24.3851 319.837 23.7237 318.34 22.9304C317.11 22.2805 315.995 21.4315 315.042 20.418C314.163 19.4606 313.499 18.3237 313.1 17.0856C312.687 15.8232 312.481 14.3646 312.481 12.7076C312.481 8.71786 313.589 5.74439 315.804 3.78499C318.02 1.82767 321.062 0.846924 324.93 0.846924C326.732 0.846924 328.393 1.04516 329.916 1.43954C331.437 1.83601 332.748 2.47453 333.858 3.35931C334.965 4.24406 335.828 5.37505 336.45 6.74802C337.069 8.12319 337.377 9.76963 337.377 11.6894V12.8204H329.605C329.605 10.9006 329.266 9.42119 328.591 8.38617C327.914 7.35116 326.788 6.83365 325.211 6.83365C324.311 6.83365 323.559 6.96514 322.959 7.23016C322.404 7.45963 321.912 7.81705 321.522 8.27346C321.165 8.70822 320.915 9.22048 320.79 9.76963C320.66 10.333 320.592 10.9174 320.592 11.5225C320.592 12.764 320.856 13.8073 321.38 14.6546C321.907 15.5018 323.033 16.2821 324.761 16.998L331.012 19.7106C332.552 20.3867 333.811 21.092 334.787 21.8265C335.763 22.5611 336.542 23.3499 337.124 24.1991C337.707 25.0463 338.11 25.977 338.335 26.9953C338.56 28.0115 338.673 29.1405 338.673 30.3819C338.673 34.6388 337.443 37.7335 334.985 39.672C332.523 41.6126 329.097 42.5808 324.705 42.5808C320.123 42.5808 316.848 41.5833 314.876 39.5884C312.902 37.5915 311.917 34.7307 311.917 31.0039V29.3657H320.028V29.3679Z" fill="#B13030"/>
    <path fill-rule="evenodd" clip-rule="evenodd" d="M23.4976 38.2321C22.5873 38.8581 21.628 39.4465 20.6281 39.9976L7.72045 42.5809L0.287842 5.41262L14.6235 2.54551C13.9585 3.23834 13.3562 3.98981 12.8267 4.79079C11.5696 6.69633 10.7676 8.86519 10.4816 11.1302C10.4546 11.391 10.4191 11.6269 10.4038 11.9107C10.3768 12.4823 10.3852 13.077 10.4664 13.6905C10.6153 14.9154 11.0467 16.2217 11.7438 17.3381C12.4341 18.465 13.3376 19.3622 14.2411 20.0403C15.1446 20.7247 16.0515 21.2089 16.9042 21.6221C17.7637 22.029 18.5825 22.3566 19.3625 22.6655C20.1374 22.9784 20.8853 23.2601 21.5959 23.5272C23.0171 24.078 24.308 24.6081 25.3587 25.2007C25.8781 25.497 26.3383 25.8016 26.7173 26.1022C27.0608 26.3735 27.3738 26.6798 27.653 27.0162C27.8966 27.3291 28.1114 27.6527 28.2823 28.0533C28.4583 28.4498 28.6038 28.9129 28.6952 29.4492C28.7375 29.7288 28.7831 29.9772 28.8 30.2255C28.8254 30.476 28.8204 30.7222 28.817 30.9705C28.7815 31.4649 28.7104 31.9679 28.5395 32.4729C28.3754 32.9799 28.1351 33.4954 27.8221 34.0066C27.4854 34.5404 27.1048 35.0438 26.6801 35.5111C25.7258 36.5356 24.6582 37.4484 23.4976 38.2321ZM43.5705 16.0798C45.4215 25.3342 40.1901 34.3593 31.6256 37.5498C31.6814 37.4977 31.7389 37.4476 31.7931 37.3933C32.5104 36.7091 33.1382 35.937 33.661 35.0958C34.4985 33.7594 35.0432 32.261 35.2615 30.6992C35.3444 30.1774 35.3782 29.6516 35.3952 29.1612C35.4324 28.0964 35.319 27.0314 35.0602 25.9979C34.7827 24.8878 34.3259 23.8311 33.7049 22.8699C33.0992 21.9401 32.3615 21.1036 31.5139 20.3868C30.7525 19.7371 29.9303 19.1639 29.0572 18.6757C27.4178 17.7491 25.8375 17.1149 24.3926 16.5202C23.6685 16.2176 22.9799 15.9296 22.3353 15.6415C21.7363 15.3736 21.1577 15.0648 20.601 14.7172C20.1645 14.4485 19.7584 14.1305 19.393 13.7698C19.1764 13.5458 18.9886 13.2948 18.8347 13.0229C18.6283 12.6263 18.4032 12.2779 18.2848 11.0508C18.1951 9.95216 18.3203 8.84658 18.6536 7.79565C18.8296 7.21265 19.0597 6.64692 19.3389 6.10538C19.6231 5.54199 19.9564 4.97441 20.3456 4.42353C21.1577 3.26907 22.0831 2.19698 23.1051 1.22255C23.2133 1.1182 23.3284 1.01595 23.4384 0.911618C32.903 0.12285 41.662 6.54148 43.5705 16.0819V16.0798Z" fill="white"/>
</svg>
