<svg width="337" height="55" viewBox="0 0 337 55" fill="none" xmlns="http://www.w3.org/2000/svg">
    <path d="M60.0904 25.1323L47.5756 3.42697C47.0971 2.61727 46.4158 1.9463 45.5991 1.48024C44.7822 1.0142 43.8581 0.769152 42.9177 0.769287H17.8854C16.9414 0.769473 16.014 1.01811 15.1964 1.49021C14.3788 1.9623 13.6998 2.64125 13.2276 3.45886L0.712784 25.1561C0.245662 25.9755 0 26.9026 0 27.8457C0 28.789 0.245662 29.7159 0.712784 30.5353L13.2276 52.2325C13.6978 53.0521 14.3763 53.7324 15.1944 54.2049C16.0124 54.6772 16.9408 54.9247 17.8854 54.9221H42.915C43.8591 54.922 44.7865 54.6733 45.604 54.2012C46.4217 53.7292 47.1007 53.0503 47.5729 52.2325L60.0877 30.5353C60.5555 29.712 60.8017 28.7812 60.8022 27.8342C60.8027 26.887 60.5573 25.9561 60.0904 25.1323ZM30.4002 46.4601V42.7394C33.3479 42.7394 36.2292 41.8651 38.6801 40.2271C41.1311 38.5891 43.0412 36.261 44.1692 33.5371C45.2972 30.8132 45.5925 27.8159 45.0174 24.9243C44.4423 22.0326 43.023 19.3764 40.9385 17.2916C38.8542 15.2069 36.1988 13.7872 33.3078 13.212C30.4168 12.6368 27.4201 12.9319 24.6969 14.0602C21.9736 15.1886 19.6461 17.0992 18.0084 19.5505C16.3708 22.002 15.4967 24.8842 15.4967 27.8325C15.4884 31.0834 16.5563 34.2458 18.5338 36.8261L21.2228 34.2056C19.9166 32.3359 19.2205 30.108 19.2298 27.8271C19.2298 25.6125 19.8865 23.4479 21.1165 21.6065C22.3465 19.7653 24.0948 18.33 26.1403 17.4827C28.1859 16.6352 30.4366 16.4135 32.608 16.8455C34.7794 17.2776 36.7742 18.3439 38.3397 19.9098C39.9053 21.4757 40.9713 23.4707 41.4033 25.6428C41.8352 27.8147 41.6136 30.066 40.7663 32.112C39.919 34.1578 38.4842 35.9067 36.6432 37.137C34.8024 38.3673 32.6381 39.0239 30.4241 39.0239V35.3032C31.8994 35.299 33.3403 34.8576 34.5649 34.0346C35.7895 33.2118 36.7429 32.0445 37.3046 30.68C37.8662 29.3155 38.011 27.8151 37.7207 26.3683C37.4302 24.9216 36.7177 23.5934 35.6731 22.5515C34.6283 21.5095 33.2985 20.8006 31.8512 20.5143C30.404 20.2279 28.9044 20.377 27.5417 20.9426C26.1792 21.5083 25.0147 22.4652 24.1956 23.6924C23.3764 24.9197 22.9392 26.3622 22.9392 27.8377C22.9346 29.1446 23.2786 30.429 23.9356 31.5585L26.7176 28.845C26.6247 28.5209 26.5782 28.1855 26.5794 27.8484C26.5794 27.0919 26.8036 26.3526 27.2238 25.7237C27.6439 25.0947 28.241 24.6046 28.9398 24.315C29.6384 24.0257 30.4072 23.9498 31.1487 24.0974C31.8905 24.245 32.5718 24.6093 33.1065 25.1441C33.6413 25.679 34.0054 26.3604 34.1529 27.1023C34.3004 27.8442 34.2248 28.6132 33.9353 29.3119C33.646 30.0107 33.1559 30.6081 32.5271 31.0283C31.8984 31.4485 31.1591 31.6729 30.4029 31.6729C30.0321 31.6696 29.6642 31.6069 29.3135 31.4867L19.695 40.8738C19.6051 40.9633 19.5041 41.041 19.3946 41.1049C19.3708 41.1288 19.3256 41.1288 19.3016 41.1501C19.2295 41.1982 19.152 41.2374 19.0705 41.2671C19.0253 41.2909 18.9774 41.2909 18.9322 41.3122L18.7224 41.3813C18.6776 41.3801 18.6331 41.3892 18.5922 41.4079C18.5231 41.4079 18.4541 41.4317 18.4062 41.4317C18.3372 41.4317 18.268 41.4079 18.1963 41.4079C18.1413 41.4099 18.0863 41.4018 18.0342 41.384L17.8244 41.3148C17.7792 41.2909 17.7313 41.2909 17.6861 41.2698C17.6115 41.2398 17.541 41.2006 17.4762 41.1527C17.4344 41.1351 17.395 41.1119 17.3593 41.0836C17.2924 41.0355 17.2302 40.9812 17.1733 40.9215C17.1495 40.8976 17.1043 40.8763 17.0803 40.8286C14.0832 37.7482 12.2437 33.7256 11.8738 29.4434C11.5039 25.161 12.6264 20.8825 15.0509 17.3338C17.4755 13.785 21.0527 11.1843 25.1758 9.9729C29.2988 8.76155 33.714 9.01409 37.6721 10.6877C41.6302 12.3613 44.8878 15.3529 46.8919 19.1552C48.8961 22.9573 49.5237 27.3358 48.6681 31.5481C47.8126 35.7603 45.5265 39.5468 42.1978 42.2653C38.8691 44.9837 34.7028 46.4668 30.4055 46.4628L30.4002 46.4601Z" fill="white"/>
    <path d="M75.1517 10.3898H86.6009C97.6782 10.2729 105.838 17.4379 105.676 27.7764C105.838 37.9074 97.6809 45.535 86.6009 45.3701H75.1517V10.3898ZM86.5319 38.928C93.5784 38.928 98.3052 34.5241 98.3052 27.8003C98.3052 21.0073 93.6927 16.8825 86.5319 16.8825H82.2806V38.9412H86.5319V38.928Z" fill="white"/>
    <path d="M131.91 45.3937H125.328V42.8451C124.282 43.891 123.033 44.7121 121.658 45.2582C120.283 45.8043 118.811 46.0639 117.333 46.0211C111.772 46.0211 108.27 42.7761 108.27 38.1862C108.27 33.4582 112.093 30.5586 118.189 30.5586H124.77V29.3999C124.825 28.7582 124.735 28.1122 124.507 27.5101C124.278 26.908 123.917 26.3651 123.45 25.9217C122.982 25.4785 122.421 25.1461 121.808 24.9496C121.195 24.753 120.545 24.6972 119.908 24.7862C118.55 24.8227 117.219 25.1673 116.014 25.7938C114.81 26.4204 113.763 27.3128 112.954 28.4033L109.234 23.9994C110.6 22.2748 112.346 20.8895 114.336 19.9523C116.326 19.0149 118.506 18.5509 120.705 18.5964C122.216 18.4525 123.741 18.6446 125.17 19.1587C126.599 19.6727 127.897 20.4963 128.971 21.5703C130.045 22.6444 130.868 23.9424 131.382 25.3717C131.896 26.801 132.088 28.3263 131.944 29.8384V45.3937H131.91ZM124.735 35.2627H119.14C116.799 35.2627 115.478 36.1663 115.478 37.9044C115.478 39.6426 116.961 40.7561 119.233 40.7561C119.94 40.7962 120.649 40.6917 121.315 40.4492C121.98 40.2065 122.59 39.8308 123.106 39.3449C123.622 38.8591 124.034 38.2732 124.316 37.623C124.599 36.9728 124.746 36.2719 124.749 35.5631L124.735 35.2627Z" fill="white"/>
    <path d="M152.47 46.0213C151.011 46.0678 149.559 45.8092 148.206 45.2624C146.853 44.7156 145.629 43.8923 144.613 42.8453V54.9218H137.439V19.1574H144.02V22.445C145.007 21.1597 146.292 20.1352 147.765 19.4603C149.237 18.7854 150.853 18.4806 152.47 18.5727C154.217 18.5891 155.943 18.9614 157.542 19.6668C159.141 20.3721 160.58 21.396 161.771 22.6755C162.961 23.9553 163.879 25.4641 164.468 27.1101C165.056 28.756 165.304 30.5045 165.194 32.2493C165.305 33.9989 165.06 35.7532 164.473 37.4054C163.887 39.0574 162.971 40.5734 161.781 41.8611C160.591 43.1486 159.152 44.1814 157.552 44.8964C155.951 45.6115 154.223 45.9942 152.47 46.0213ZM151.141 25.0415C150.216 25.0243 149.297 25.2037 148.446 25.5679C147.595 25.9322 146.831 26.4729 146.204 27.1544C145.578 27.8359 145.103 28.6428 144.811 29.5214C144.519 30.4001 144.417 31.3308 144.512 32.2518C144.417 33.1751 144.518 34.1081 144.81 34.9894C145.101 35.8708 145.575 36.6807 146.201 37.3658C146.827 38.051 147.591 38.5959 148.442 38.965C149.293 39.3341 150.213 39.5189 151.141 39.5072C152.07 39.5109 152.989 39.3238 153.843 38.9572C154.696 38.5908 155.465 38.0529 156.102 37.3768C156.739 36.7007 157.23 35.9009 157.545 35.027C157.86 34.1533 157.992 33.224 157.933 32.297C158.004 31.3659 157.881 30.43 157.571 29.5488C157.262 28.6678 156.773 27.8606 156.135 27.1784C155.497 26.4963 154.724 25.9542 153.866 25.5863C153.008 25.2184 152.083 25.0329 151.149 25.0415H151.141Z" fill="white"/>
    <path d="M184.472 46.0226C183.012 46.0691 181.56 45.8105 180.208 45.2637C178.854 44.7168 177.631 43.8936 176.614 42.8466V54.9231H169.439V19.1587H176.043V22.4463C177.027 21.1641 178.31 20.1414 179.778 19.4667C181.247 18.792 182.858 18.4855 184.472 18.574C186.218 18.5904 187.945 18.9627 189.544 19.6681C191.143 20.3734 192.581 21.3973 193.772 22.6768C194.962 23.9565 195.88 25.4654 196.469 27.1112C197.058 28.7571 197.305 30.5058 197.195 32.2504C197.307 34.0002 197.061 35.7545 196.474 37.4065C195.887 39.0587 194.972 40.5747 193.782 41.8622C192.593 43.1499 191.153 44.1825 189.552 44.8977C187.952 45.6128 186.223 45.9955 184.472 46.0226ZM183.142 25.0428C182.216 25.0256 181.298 25.205 180.447 25.5691C179.596 25.9335 178.832 26.4742 178.205 27.1557C177.579 27.8372 177.103 28.6441 176.812 29.5227C176.52 30.4014 176.418 31.3321 176.513 32.2531C176.418 33.1764 176.52 34.1094 176.811 34.9907C177.102 35.8721 177.575 36.682 178.201 37.3671C178.827 38.0523 179.592 38.5972 180.443 38.9663C181.294 39.3354 182.215 39.5202 183.142 39.5085C184.071 39.5122 184.991 39.3251 185.844 38.9585C186.697 38.592 187.466 38.0541 188.103 37.3779C188.74 36.7018 189.231 35.9022 189.546 35.0283C189.86 34.1546 189.992 33.2253 189.933 32.2983C190.008 31.3667 189.886 30.43 189.576 29.5479C189.268 28.6659 188.779 27.8578 188.14 27.1753C187.502 26.4928 186.729 25.9506 185.869 25.5835C185.011 25.2163 184.084 25.0322 183.15 25.0428H183.142Z" fill="white"/>
    <path d="M223.225 45.3934L214.163 33.0379H208.925V45.3934H201.751V10.3892H214.894C222.217 10.3892 227.501 14.9551 227.501 21.6789C227.538 23.7542 226.979 25.7965 225.892 27.5634C224.804 29.3305 223.23 30.7482 221.361 31.648L231.28 45.3723H223.225V45.3934ZM208.905 26.7339H214.891C215.583 26.8075 216.281 26.7301 216.94 26.5073C217.599 26.2845 218.202 25.9215 218.708 25.4433C219.212 24.9652 219.608 24.3832 219.867 23.7375C220.124 23.0917 220.241 22.3977 220.205 21.703C220.227 21.0139 220.102 20.3278 219.838 19.691C219.574 19.054 219.178 18.4805 218.675 18.009C218.171 17.5373 217.574 17.1786 216.921 16.9562C216.27 16.7338 215.578 16.6533 214.891 16.7198H208.911L208.905 26.7339Z" fill="white"/>
    <path d="M255.324 45.3945H248.743V42.8459C247.695 43.8917 246.447 44.7128 245.073 45.2589C243.697 45.805 242.225 46.0646 240.747 46.0218C235.185 46.0218 231.685 42.7766 231.685 38.1869C231.685 33.4588 235.507 30.5594 241.603 30.5594H248.184V29.4006C248.24 28.7584 248.15 28.1119 247.92 27.5093C247.692 26.9067 247.33 26.3635 246.863 25.9201C246.394 25.4767 245.833 25.1445 245.218 24.9483C244.604 24.7522 243.954 24.6969 243.317 24.7869C241.96 24.8233 240.628 25.168 239.424 25.7945C238.219 26.4212 237.172 27.3135 236.363 28.404L232.642 24.0001C234.006 22.2789 235.75 20.8959 237.735 19.9591C239.721 19.0224 241.897 18.5572 244.093 18.5998C245.604 18.456 247.129 18.6479 248.558 19.162C249.988 19.6761 251.286 20.4996 252.358 21.5737C253.433 22.6478 254.257 23.9458 254.769 25.3751C255.284 26.8045 255.476 28.3296 255.333 29.8418V45.3972L255.324 45.3945ZM248.15 35.2635H242.54C240.2 35.2635 238.879 36.167 238.879 37.9052C238.879 39.6433 240.363 40.7569 242.633 40.7569C243.342 40.797 244.049 40.6924 244.716 40.4499C245.381 40.2072 245.992 39.8315 246.508 39.3457C247.024 38.8598 247.435 38.2739 247.717 37.6237C248 36.9735 248.147 36.2726 248.15 35.5637V35.2635Z" fill="white"/>
    <path d="M287.125 5.61401V45.3702H280.544V42.1252C279.559 43.4085 278.275 44.432 276.806 45.1067C275.336 45.7816 273.724 46.0873 272.108 45.9974C270.357 45.9795 268.628 45.6046 267.025 44.8955C265.425 44.1866 263.983 43.1586 262.794 41.8741C261.603 40.5896 260.686 39.0757 260.099 37.425C259.513 35.7743 259.27 34.0213 259.383 32.2733C259.27 30.5251 259.513 28.7721 260.099 27.1214C260.686 25.4707 261.603 23.9568 262.794 22.6723C263.983 21.3879 265.425 20.3598 267.025 19.6509C268.628 18.9418 270.357 18.567 272.108 18.549C273.565 18.479 275.02 18.7221 276.377 19.2622C277.732 19.8022 278.955 20.6267 279.965 21.6796V5.61401H287.125ZM273.453 25.0417C272.524 25.038 271.604 25.2252 270.751 25.5917C269.898 25.9583 269.129 26.4963 268.492 27.1723C267.854 27.8484 267.364 28.648 267.049 29.5219C266.734 30.3957 266.602 31.3249 266.662 32.252C266.587 33.1843 266.709 34.1216 267.019 35.0042C267.328 35.8867 267.817 36.6951 268.457 37.3778C269.096 38.0605 269.87 38.6025 270.731 38.9692C271.59 39.3358 272.517 39.5191 273.453 39.5074C274.379 39.5247 275.297 39.3453 276.148 38.9811C276.999 38.6167 277.762 38.076 278.39 37.3946C279.016 36.7131 279.492 35.9062 279.783 35.0275C280.075 34.1489 280.177 33.2181 280.082 32.2972C280.173 31.3745 280.068 30.4432 279.776 29.5634C279.483 28.6837 279.009 27.8755 278.385 27.1911C277.759 26.5069 276.996 25.9618 276.147 25.5916C275.297 25.2211 274.379 25.0338 273.453 25.0417Z" fill="white"/>
    <path d="M314.888 45.3945H308.307V42.8459C307.259 43.8917 306.011 44.7128 304.637 45.2589C303.261 45.805 301.789 46.0646 300.311 46.0218C294.749 46.0218 291.249 42.7766 291.249 38.1869C291.249 33.4588 295.072 30.5594 301.167 30.5594H307.748V29.4006C307.804 28.7584 307.714 28.1119 307.484 27.5093C307.256 26.9067 306.894 26.3635 306.427 25.9201C305.958 25.4767 305.396 25.1445 304.782 24.9483C304.17 24.7522 303.518 24.6969 302.881 24.7869C301.524 24.8233 300.192 25.168 298.987 25.7945C297.783 26.4212 296.737 27.3135 295.927 28.404L292.208 24.0001C293.572 22.2789 295.314 20.8959 297.299 19.9591C299.285 19.0224 301.461 18.5572 303.657 18.5998C305.168 18.456 306.692 18.6479 308.122 19.162C309.552 19.6761 310.85 20.4996 311.922 21.5737C312.997 22.6478 313.821 23.9458 314.333 25.3751C314.848 26.8045 315.04 28.3296 314.897 29.8418V45.3972L314.888 45.3945ZM307.748 35.2635H302.141C299.801 35.2635 298.48 36.167 298.48 37.9052C298.48 39.6433 299.964 40.7569 302.234 40.7569C302.943 40.797 303.65 40.6924 304.317 40.4499C304.984 40.2072 305.593 39.8315 306.109 39.3457C306.625 38.8598 307.036 38.2739 307.319 37.6237C307.601 36.9735 307.748 36.2726 307.752 35.5637L307.748 35.2635Z" fill="white"/>
    <path d="M336.557 25.4587H334.658C333.724 25.35 332.778 25.4504 331.889 25.7525C330.999 26.0546 330.186 26.5509 329.511 27.2055C328.838 27.8601 328.317 28.6565 327.989 29.537C327.659 30.4177 327.53 31.3603 327.611 32.297V45.3939H320.438V19.152H327.019V22.2827C327.877 21.1941 328.972 20.3166 330.222 19.7177C331.471 19.1188 332.841 18.8144 334.227 18.8277C335.02 18.8067 335.81 18.9164 336.568 19.152V25.4587H336.557Z" fill="white"/>
</svg>
