<svg width="34" height="34" viewBox="0 0 34 34" fill="none" xmlns="http://www.w3.org/2000/svg">
    <path d="M16.65 0C7.45 0 0 7.4667 0 16.6667C0 25.8667 7.45 33.3333 16.65 33.3333C25.8667 33.3333 33.3333 25.8667 33.3333 16.6667C33.3333 7.4667 25.8667 0 16.65 0ZM28.2 10H23.2833C22.75 7.9167 21.9833 5.9167 20.9833 4.0667C24.05 5.1167 26.6 7.25 28.2 10ZM16.6667 3.4C18.05 5.4 19.1333 7.6167 19.85 10H13.4833C14.2 7.6167 15.2833 5.4 16.6667 3.4ZM3.7667 20C3.5 18.9333 3.3333 17.8167 3.3333 16.6667C3.3333 15.5167 3.5 14.4 3.7667 13.3333H9.4C9.2667 14.4333 9.1667 15.5333 9.1667 16.6667C9.1667 17.8 9.2667 18.9 9.4 20H3.7667ZM5.1333 23.3333H10.05C10.5833 25.4167 11.35 27.4167 12.35 29.2667C9.2833 28.2167 6.7333 26.1 5.1333 23.3333ZM10.05 10H5.1333C6.7333 7.2333 9.2833 5.1167 12.35 4.0667C11.35 5.9167 10.5833 7.9167 10.05 10ZM16.6667 29.9333C15.2833 27.9333 14.2 25.7167 13.4833 23.3333H19.85C19.1333 25.7167 18.05 27.9333 16.6667 29.9333ZM20.5667 20H12.7667C12.6167 18.9 12.5 17.8 12.5 16.6667C12.5 15.5333 12.6167 14.4167 12.7667 13.3333H20.5667C20.7167 14.4167 20.8333 15.5333 20.8333 16.6667C20.8333 17.8 20.7167 18.9 20.5667 20ZM20.9833 29.2667C21.9833 27.4167 22.75 25.4167 23.2833 23.3333H28.2C26.6 26.0833 24.05 28.2167 20.9833 29.2667ZM23.9333 20C24.0667 18.9 24.1667 17.8 24.1667 16.6667C24.1667 15.5333 24.0667 14.4333 23.9333 13.3333H29.5667C29.8333 14.4 30 15.5167 30 16.6667C30 17.8167 29.8333 18.9333 29.5667 20H23.9333Z" fill="#00D38C"/>
</svg>
