<svg width="27" height="35" viewBox="0 0 27 35" fill="none" xmlns="http://www.w3.org/2000/svg">
    <path d="M13.333 26.6667C15.167 26.6667 16.667 25.1667 16.667 23.3333C16.667 21.5 15.167 20 13.333 20C11.5 20 10 21.5 10 23.3333C10 25.1667 11.5 26.6667 13.333 26.6667ZM23.333 11.6667H21.667V8.3333C21.667 3.7333 17.933 0 13.333 0C8.73299 0 5 3.7333 5 8.3333V11.6667H3.33299C1.49999 11.6667 0 13.1667 0 15V31.6667C0 33.5 1.49999 35 3.33299 35H23.333C25.167 35 26.667 33.5 26.667 31.6667V15C26.667 13.1667 25.167 11.6667 23.333 11.6667ZM8.16701 8.3333C8.16701 5.4833 10.483 3.1667 13.333 3.1667C16.183 3.1667 18.5 5.4833 18.5 8.3333V11.6667H8.16701V8.3333ZM23.333 31.6667H3.33299V15H23.333V31.6667Z" fill="#00D38C"/>
</svg>
