<svg width="1249" height="431" viewBox="0 0 1249 431" fill="none" xmlns="http://www.w3.org/2000/svg">
    <path d="M426.717 120.806C369.462 135.831 269.066 136.218 213.966 154.53C158.866 172.593 149.116 208.58 178.172 218.882C207.282 229.267 275.253 214.077 306.629 220.07C338.059 225.98 332.922 253.158 301.243 267.465C269.564 281.688 211.48 283.042 173.587 296.161C135.693 309.114 117.934 333.889 103.047 361.094C89.2929 386.2 78.19 413.625 61.4528 430.087C68.3852 426.966 75.5386 421.359 81.9738 413.929C104.566 387.387 117.768 337.645 158.949 313.92C200.212 290.168 269.564 292.57 307.347 275.447C345.075 258.516 351.261 222.114 318.947 211.508C286.439 200.957 215.651 216.148 188.059 209.437C160.302 202.725 175.824 174.25 228.853 160.109C281.854 145.968 372.362 146.189 418.928 129.728C430.667 125.557 439.67 120.365 445.719 114.703C440.002 116.94 433.649 118.928 426.717 120.779V120.806Z" fill="#980926"/>
    <path d="M93.8777 397.054C98.2415 397.606 101.915 397.772 106.997 397.772H303.729C361.011 397.772 407.908 351.731 407.908 295.526V133.208C359.077 146.244 277.932 147.045 228.853 160.136C175.824 174.277 160.33 202.753 188.059 209.464C215.651 216.176 286.439 200.985 318.947 211.536C351.261 222.169 345.075 258.544 307.347 275.474C269.536 292.598 200.212 290.195 158.949 313.948C125.419 333.198 110.532 369.656 93.8777 397.026V397.054Z" fill="url(#paint0_linear_2023_24)"/>
    <path d="M70.7881 152.154C100.479 89.072 130.39 75.3176 199.963 65.4023C255.699 57.5585 336.872 52.0622 393.905 56.3708C376.616 23.0344 341.374 0 300.994 0H104.097C46.8974 0 0 46.0412 0 102.246V295.498C0 313.561 4.91622 330.602 13.3401 345.296C23.7249 289.394 46.8974 203.305 70.7881 152.127V152.154Z" fill="url(#paint1_linear_2023_24)"/>
    <g style="mix-blend-mode:multiply">
        <path d="M106.997 397.109C101.997 397.109 98.6003 396.943 94.9546 396.529C98.0203 391.447 101.003 386.117 104.152 380.51C117.409 356.84 132.434 329.994 159.28 314.583C172.288 307.098 188.805 301.629 212.861 296.851C251.694 313.865 292.708 322.51 334.745 322.51C358.497 322.51 382.277 319.692 405.478 314.113C396.308 362.281 353.691 397.164 303.728 397.164H106.997V397.109Z" fill="url(#paint2_linear_2023_24)"/>
    </g>
    <g style="mix-blend-mode:multiply">
        <path d="M13.0363 343.417C4.94382 328.696 0.662842 312.152 0.662842 295.498V102.246C0.662842 77.9415 9.61147 54.4651 25.9344 35.9326C29.3868 80.8139 42.5336 123.651 65.0709 163.34C42.6164 216.176 22.482 293.178 13.0086 343.417H13.0363Z" fill="url(#paint3_linear_2023_24)"/>
    </g>
    <path style="mix-blend-mode:lighten" d="M404.677 134.644C374.103 141.272 343.777 145.111 312.816 148.315C268.404 152.872 200.433 161.186 179.995 188.142C171.957 198.941 178.144 206.067 190.6 208.056C230.262 214.933 281.827 196.538 320.19 209.74C336.347 215.016 346.069 229.157 340.462 245.866C333.309 268.321 307.706 279.368 286.577 284.644C254.953 292.405 218.855 294.559 187.314 304.088C135.252 319.913 121.829 351.261 96.0875 394.844L94.7341 394.043C119.978 349.494 133.014 317.593 185.463 300.994C217.391 290.83 253.351 288.676 285.528 280.584C305.165 275.64 329.525 265.393 336.292 244.513C341.042 229.985 332.536 218.606 318.671 213.911C282.876 201.289 229.599 218.054 189.965 211.757C175.41 209.133 166.876 199.604 177.178 186.015C198.803 157.789 267.189 149.945 312.401 145.802C343.445 142.93 373.771 139.56 404.401 133.401L404.649 134.671L404.677 134.644Z" fill="url(#paint4_radial_2023_24)"/>
    <path d="M85.6751 161.489C116.084 98.9594 142.074 88.8231 212.282 78.4935C272.381 69.6277 392.469 55.321 450 67.363C399.153 44.5771 255.975 57.4477 199.991 65.3744C130.418 75.2897 100.507 89.0441 70.816 152.126C41.3463 215.209 12.2356 327.647 8.83845 381.062C7.23654 405.533 10.9375 417.658 17.2899 422.463C6.90511 366.59 60.9835 212.447 85.6751 161.517V161.489Z" fill="#205855"/>
    <path style="mix-blend-mode:lighten" d="M388.105 57.3372C352.642 56.2048 317.814 56.8401 282.406 59.5744C244.596 62.5296 203.167 65.8992 166.157 74.2126C127.711 83.4926 106.803 96.667 86.1994 129.064C64.8773 163.119 47.3391 215.816 36.1534 255.56C27.9504 282.821 21.5152 310.385 15.5494 338.308L13.5332 337.921C18.7532 309.943 24.4704 281.882 32.3419 254.511C43.1134 213.828 59.9335 161.296 81.5594 126.275C102.799 92.3032 124.756 78.4659 164.887 68.7992C202.614 60.403 243.463 57.3648 281.992 54.6582C317.704 52.1724 352.283 52.2553 388.16 54.0229L387.995 57.3925L388.105 57.3372Z" fill="url(#paint5_radial_2023_24)"/>
    <path d="M540.283 239H511.39V94.6325H612.467V123.526H540.283V152.42H583.574V181.313H540.283V239ZM728.444 239H627.367V94.6325H656.261V210.106H728.444V239ZM852.375 181.313C852.375 189.3 850.865 196.817 847.845 203.865C844.824 210.845 840.697 216.952 835.462 222.187C830.227 227.355 824.085 231.449 817.038 234.47C810.058 237.49 802.575 239 794.588 239C786.601 239 779.084 237.49 772.037 234.47C765.056 231.449 758.949 227.355 753.714 222.187C748.546 216.952 744.452 210.845 741.431 203.865C738.411 196.817 736.901 189.3 736.901 181.313V94.6325H765.694V181.313C765.694 185.273 766.432 188.998 767.909 192.488C769.453 195.978 771.533 199.032 774.151 201.65C776.768 204.267 779.822 206.348 783.312 207.892C786.869 209.368 790.628 210.106 794.588 210.106C798.548 210.106 802.273 209.368 805.763 207.892C809.32 206.348 812.407 204.267 815.025 201.65C817.642 199.032 819.689 195.978 821.166 192.488C822.709 188.998 823.481 185.273 823.481 181.313V94.6325H852.375V181.313ZM989.595 239H954.56L926.774 192.388L898.887 239H864.053L908.35 166.816L864.053 94.6325H898.887L926.774 141.245L954.56 94.6325H989.595L945.298 166.816L989.595 239ZM1031.98 239H1003.09V94.6325H1031.98V239ZM1200.31 167.42C1200.31 174.266 1199.4 180.877 1197.59 187.253C1195.84 193.562 1193.36 199.502 1190.14 205.073C1186.92 210.576 1183.02 215.61 1178.46 220.174C1173.9 224.738 1168.86 228.664 1163.36 231.953C1157.86 235.174 1151.92 237.658 1145.54 239.403C1139.16 241.215 1132.55 242.121 1125.71 242.121C1118.86 242.121 1112.25 241.215 1105.87 239.403C1099.56 237.658 1093.63 235.174 1088.05 231.953C1082.55 228.664 1077.52 224.738 1072.95 220.174C1068.39 215.61 1064.46 210.576 1061.17 205.073C1057.95 199.502 1055.44 193.562 1053.62 187.253C1051.88 180.877 1051.01 174.266 1051.01 167.42C1051.01 160.574 1051.88 153.963 1053.62 147.587C1055.44 141.211 1057.95 135.271 1061.17 129.768C1064.46 124.264 1068.39 119.231 1072.95 114.667C1077.52 110.103 1082.55 106.21 1088.05 102.988C1093.63 99.7669 1099.56 97.2836 1105.87 95.5385C1112.25 93.7264 1118.86 92.8203 1125.71 92.8203C1132.55 92.8203 1139.16 93.7264 1145.54 95.5385C1151.92 97.2836 1157.86 99.7669 1163.36 102.988C1168.86 106.21 1173.9 110.103 1178.46 114.667C1183.02 119.231 1186.92 124.264 1190.14 129.768C1193.36 135.271 1195.84 141.211 1197.59 147.587C1199.4 153.963 1200.31 160.574 1200.31 167.42ZM1171.61 167.42C1171.61 161.111 1170.41 155.172 1167.99 149.601C1165.57 143.963 1162.29 139.097 1158.12 135.003C1154.03 130.842 1149.16 127.553 1143.53 125.137C1137.96 122.721 1132.02 121.513 1125.71 121.513C1119.33 121.513 1113.36 122.721 1107.79 125.137C1102.22 127.553 1097.35 130.842 1093.19 135.003C1089.03 139.097 1085.74 143.963 1083.32 149.601C1080.91 155.172 1079.7 161.111 1079.7 167.42C1079.7 173.729 1080.91 179.669 1083.32 185.24C1085.74 190.743 1089.03 195.576 1093.19 199.737C1097.35 203.898 1102.22 207.187 1107.79 209.603C1113.36 212.019 1119.33 213.227 1125.71 213.227C1132.02 213.227 1137.96 212.019 1143.53 209.603C1149.16 207.187 1154.03 203.898 1158.12 199.737C1162.29 195.576 1165.57 190.743 1167.99 185.24C1170.41 179.669 1171.61 173.729 1171.61 167.42Z" fill="white"/>
    <path d="M510.889 323V266.65H519.583V314.628H545.987V323H510.889ZM558.354 323V280.737H566.646V323H558.354ZM562.379 271.399C560.608 271.399 559.24 270.943 558.274 270.031C557.308 269.119 556.825 267.831 556.825 266.167C556.825 264.611 557.308 263.349 558.274 262.383C559.294 261.417 560.662 260.934 562.379 260.934C564.15 260.934 565.519 261.391 566.485 262.303C567.451 263.215 567.934 264.503 567.934 266.167C567.934 267.723 567.424 268.984 566.404 269.95C565.438 270.916 564.097 271.399 562.379 271.399ZM610.222 340.71V312.938H611.832C611.832 314.225 611.403 315.513 610.544 316.801C609.686 318.036 608.532 319.19 607.083 320.263C605.634 321.336 604.024 322.195 602.253 322.839C600.482 323.483 598.657 323.805 596.779 323.805C592.968 323.805 589.561 322.866 586.555 320.987C583.55 319.055 581.162 316.453 579.391 313.179C577.673 309.852 576.815 306.068 576.815 301.828C576.815 297.589 577.673 293.832 579.391 290.558C581.108 287.231 583.443 284.628 586.394 282.75C589.4 280.818 592.781 279.852 596.537 279.852C598.63 279.852 600.616 280.201 602.494 280.898C604.426 281.596 606.144 282.508 607.646 283.635C609.203 284.762 610.41 286.024 611.269 287.419C612.181 288.761 612.637 290.129 612.637 291.524L610.222 291.685V280.657H618.514V340.71H610.222ZM597.664 316.157C600.187 316.157 602.414 315.54 604.346 314.306C606.278 313.072 607.78 311.381 608.854 309.234C609.981 307.088 610.544 304.619 610.544 301.828C610.544 299.038 609.981 296.569 608.854 294.422C607.78 292.222 606.278 290.505 604.346 289.27C602.414 288.036 600.187 287.419 597.664 287.419C595.142 287.419 592.915 288.063 590.983 289.351C589.051 290.585 587.521 292.303 586.394 294.503C585.321 296.65 584.784 299.091 584.784 301.828C584.784 304.565 585.321 307.034 586.394 309.234C587.521 311.381 589.051 313.072 590.983 314.306C592.915 315.54 595.142 316.157 597.664 316.157ZM644.908 323.805C641.903 323.805 639.273 323.107 637.019 321.712C634.819 320.317 633.102 318.358 631.867 315.835C630.687 313.313 630.096 310.308 630.096 306.819V280.737H638.388V304.565C638.388 307.034 638.763 309.181 639.515 311.005C640.32 312.776 641.447 314.145 642.896 315.111C644.398 316.077 646.196 316.56 648.289 316.56C649.846 316.56 651.268 316.318 652.556 315.835C653.844 315.299 654.944 314.574 655.856 313.662C656.822 312.75 657.574 311.649 658.11 310.361C658.647 309.073 658.915 307.678 658.915 306.175V280.737H667.207V323H658.915V314.145L660.364 313.179C659.72 315.165 658.62 316.962 657.064 318.572C655.561 320.182 653.763 321.47 651.67 322.436C649.577 323.349 647.323 323.805 644.908 323.805ZM680.205 323V280.737H688.497V323H680.205ZM684.23 271.399C682.459 271.399 681.091 270.943 680.125 270.031C679.159 269.119 678.676 267.831 678.676 266.167C678.676 264.611 679.159 263.349 680.125 262.383C681.144 261.417 682.513 260.934 684.23 260.934C686.001 260.934 687.37 261.391 688.336 262.303C689.302 263.215 689.785 264.503 689.785 266.167C689.785 267.723 689.275 268.984 688.255 269.95C687.289 270.916 685.947 271.399 684.23 271.399ZM718.871 323.805C715.007 323.805 711.545 322.866 708.486 320.987C705.481 319.055 703.093 316.453 701.322 313.179C699.551 309.852 698.665 306.068 698.665 301.828C698.665 297.589 699.524 293.832 701.241 290.558C703.012 287.231 705.4 284.628 708.406 282.75C711.411 280.818 714.819 279.852 718.629 279.852C720.722 279.852 722.735 280.201 724.667 280.898C726.652 281.542 728.423 282.455 729.98 283.635C731.536 284.762 732.744 286.024 733.602 287.419C734.515 288.761 734.971 290.129 734.971 291.524L732.556 291.685V263.43H740.847V323H732.556V312.938H734.166C734.166 314.225 733.736 315.513 732.878 316.801C732.019 318.036 730.865 319.19 729.416 320.263C728.021 321.336 726.384 322.195 724.506 322.839C722.681 323.483 720.803 323.805 718.871 323.805ZM719.998 316.64C722.52 316.64 724.747 315.996 726.679 314.708C728.611 313.42 730.114 311.676 731.187 309.476C732.314 307.222 732.878 304.673 732.878 301.828C732.878 298.984 732.314 296.462 731.187 294.261C730.114 292.007 728.611 290.236 726.679 288.948C724.747 287.66 722.52 287.016 719.998 287.016C717.475 287.016 715.248 287.66 713.316 288.948C711.384 290.236 709.855 292.007 708.728 294.261C707.654 296.462 707.118 298.984 707.118 301.828C707.118 304.673 707.654 307.222 708.728 309.476C709.855 311.676 711.384 313.42 713.316 314.708C715.248 315.996 717.475 316.64 719.998 316.64ZM753.63 323V280.737H761.921V323H753.63ZM757.655 271.399C755.884 271.399 754.515 270.943 753.549 270.031C752.583 269.119 752.1 267.831 752.1 266.167C752.1 264.611 752.583 263.349 753.549 262.383C754.569 261.417 755.937 260.934 757.655 260.934C759.426 260.934 760.794 261.391 761.76 262.303C762.726 263.215 763.209 264.503 763.209 266.167C763.209 267.723 762.699 268.984 761.68 269.95C760.714 270.916 759.372 271.399 757.655 271.399ZM779.899 323V269.95H788.19V323H779.899ZM771.124 288.787V280.737H798.011V288.787H771.124ZM812.645 341.515L821.178 321.792L821.259 328.394L800.168 280.737H809.828L823.03 311.81C823.298 312.347 823.62 313.179 823.996 314.306C824.371 315.379 824.693 316.453 824.962 317.526L822.869 318.009C823.298 316.882 823.7 315.755 824.076 314.628C824.505 313.501 824.908 312.374 825.284 311.247L836.312 280.737H846.133L828.745 323L821.581 341.515H812.645ZM876.991 323V266.65H899.934C902.993 266.65 905.756 267.428 908.225 268.984C910.747 270.487 912.76 272.553 914.263 275.183C915.765 277.813 916.517 280.737 916.517 283.957C916.517 287.177 915.765 290.102 914.263 292.732C912.76 295.362 910.747 297.481 908.225 299.091C905.756 300.648 902.993 301.426 899.934 301.426H885.685V323H876.991ZM885.685 293.054H899.773C901.222 293.054 902.536 292.651 903.717 291.846C904.898 290.988 905.837 289.888 906.535 288.546C907.286 287.151 907.662 285.621 907.662 283.957C907.662 282.294 907.286 280.791 906.535 279.449C905.837 278.108 904.898 277.034 903.717 276.229C902.536 275.424 901.222 275.022 899.773 275.022H885.685V293.054ZM926.079 323V263.43H934.371V323H926.079ZM961.597 323.805C958.108 323.805 954.915 322.839 952.017 320.907C949.173 318.975 946.892 316.345 945.175 313.018C943.457 309.691 942.599 305.934 942.599 301.748C942.599 297.508 943.457 293.752 945.175 290.478C946.946 287.151 949.307 284.548 952.259 282.669C955.264 280.791 958.618 279.852 962.321 279.852C964.521 279.852 966.534 280.174 968.359 280.818C970.183 281.462 971.766 282.374 973.108 283.555C974.503 284.682 975.63 285.997 976.489 287.499C977.401 289.002 977.965 290.612 978.18 292.329L976.328 291.685V280.737H984.7V323H976.328V312.938L978.26 312.374C977.938 313.823 977.267 315.245 976.248 316.64C975.282 317.982 974.02 319.19 972.464 320.263C970.961 321.336 969.271 322.195 967.393 322.839C965.568 323.483 963.636 323.805 961.597 323.805ZM963.77 316.157C966.292 316.157 968.52 315.54 970.452 314.306C972.384 313.072 973.886 311.381 974.96 309.234C976.087 307.034 976.65 304.539 976.65 301.748C976.65 299.011 976.087 296.569 974.96 294.422C973.886 292.276 972.384 290.585 970.452 289.351C968.52 288.117 966.292 287.499 963.77 287.499C961.301 287.499 959.101 288.117 957.169 289.351C955.291 290.585 953.788 292.276 952.661 294.422C951.588 296.569 951.051 299.011 951.051 301.748C951.051 304.539 951.588 307.034 952.661 309.234C953.788 311.381 955.291 313.072 957.169 314.306C959.101 315.54 961.301 316.157 963.77 316.157ZM1001.51 323V269.95H1009.8V323H1001.51ZM992.735 288.787V280.737H1019.62V288.787H992.735ZM1029.72 323V275.988C1029.72 273.573 1030.25 271.426 1031.33 269.548C1032.4 267.67 1033.88 266.194 1035.75 265.12C1037.63 264.047 1039.81 263.51 1042.27 263.51C1043.99 263.51 1045.6 263.832 1047.1 264.476C1048.61 265.12 1049.81 265.979 1050.73 267.052L1047.91 273.412C1047.21 272.768 1046.43 272.258 1045.58 271.882C1044.77 271.453 1043.99 271.238 1043.24 271.238C1042.11 271.238 1041.15 271.426 1040.34 271.802C1039.59 272.124 1039.03 272.661 1038.65 273.412C1038.28 274.11 1038.09 274.968 1038.09 275.988V323H1033.9C1033.2 323 1032.51 323 1031.81 323C1031.11 323 1030.41 323 1029.72 323ZM1022.95 289.109V281.462H1048.07V289.109H1022.95ZM1074.16 323.805C1070.02 323.805 1066.32 322.866 1063.05 320.987C1059.83 319.055 1057.28 316.453 1055.4 313.179C1053.52 309.852 1052.58 306.068 1052.58 301.828C1052.58 297.589 1053.52 293.832 1055.4 290.558C1057.28 287.231 1059.83 284.628 1063.05 282.75C1066.32 280.818 1070.02 279.852 1074.16 279.852C1078.23 279.852 1081.88 280.818 1085.1 282.75C1088.38 284.628 1090.95 287.231 1092.83 290.558C1094.71 293.832 1095.65 297.589 1095.65 301.828C1095.65 306.068 1094.71 309.852 1092.83 313.179C1090.95 316.453 1088.38 319.055 1085.1 320.987C1081.88 322.866 1078.23 323.805 1074.16 323.805ZM1074.16 316.238C1076.68 316.238 1078.93 315.621 1080.92 314.386C1082.9 313.098 1084.46 311.381 1085.59 309.234C1086.71 307.034 1087.25 304.565 1087.2 301.828C1087.25 299.038 1086.71 296.569 1085.59 294.422C1084.46 292.222 1082.9 290.505 1080.92 289.27C1078.93 288.036 1076.68 287.419 1074.16 287.419C1071.63 287.419 1069.35 288.063 1067.31 289.351C1065.33 290.585 1063.77 292.303 1062.64 294.503C1061.52 296.65 1060.98 299.091 1061.03 301.828C1060.98 304.565 1061.52 307.034 1062.64 309.234C1063.77 311.381 1065.33 313.098 1067.31 314.386C1069.35 315.621 1071.63 316.238 1074.16 316.238ZM1104.68 323V280.737H1113.06V294.02L1112.25 290.8C1112.84 288.761 1113.83 286.909 1115.23 285.245C1116.68 283.582 1118.32 282.267 1120.14 281.301C1122.02 280.335 1123.95 279.852 1125.94 279.852C1126.85 279.852 1127.71 279.932 1128.51 280.093C1129.37 280.254 1130.04 280.442 1130.53 280.657L1128.35 289.673C1127.71 289.405 1126.98 289.19 1126.18 289.029C1125.43 288.814 1124.68 288.707 1123.92 288.707C1122.48 288.707 1121.08 289.002 1119.74 289.592C1118.45 290.129 1117.3 290.907 1116.28 291.927C1115.31 292.893 1114.53 294.047 1113.94 295.388C1113.35 296.676 1113.06 298.099 1113.06 299.655V323H1104.68ZM1136.99 323V280.737H1145.36V289.753L1143.83 290.719C1144.26 289.324 1144.93 287.982 1145.85 286.694C1146.81 285.406 1147.97 284.279 1149.31 283.313C1150.7 282.294 1152.18 281.489 1153.73 280.898C1155.34 280.308 1156.98 280.013 1158.65 280.013C1161.06 280.013 1163.18 280.415 1165 281.22C1166.83 282.025 1168.33 283.233 1169.51 284.843C1170.69 286.453 1171.55 288.465 1172.09 290.88L1170.8 290.558L1171.36 289.19C1171.95 287.956 1172.76 286.802 1173.78 285.728C1174.85 284.601 1176.06 283.609 1177.4 282.75C1178.74 281.891 1180.17 281.22 1181.67 280.737C1183.17 280.254 1184.65 280.013 1186.1 280.013C1189.26 280.013 1191.87 280.657 1193.9 281.945C1196 283.233 1197.55 285.192 1198.57 287.821C1199.65 290.451 1200.18 293.725 1200.18 297.642V323H1191.81V298.125C1191.81 295.71 1191.49 293.752 1190.85 292.249C1190.26 290.693 1189.34 289.539 1188.11 288.787C1186.87 288.036 1185.29 287.66 1183.36 287.66C1181.86 287.66 1180.43 287.929 1179.09 288.465C1177.8 288.948 1176.68 289.646 1175.71 290.558C1174.75 291.471 1173.99 292.544 1173.46 293.778C1172.92 294.959 1172.65 296.274 1172.65 297.723V323H1164.28V297.964C1164.28 295.764 1163.96 293.913 1163.31 292.41C1162.67 290.854 1161.73 289.673 1160.5 288.868C1159.26 288.063 1157.76 287.66 1155.99 287.66C1154.49 287.66 1153.09 287.929 1151.8 288.465C1150.51 288.948 1149.39 289.646 1148.42 290.558C1147.46 291.417 1146.7 292.464 1146.17 293.698C1145.63 294.879 1145.36 296.167 1145.36 297.562V323H1136.99Z" fill="url(#paint6_radial_2023_24)"/>
    <defs>
        <linearGradient id="paint0_linear_2023_24" x1="163.975" y1="184.635" x2="403.848" y2="406.748" gradientUnits="userSpaceOnUse">
            <stop stop-color="#BF648B"/>
            <stop offset="0.52" stop-color="#F32852"/>
            <stop offset="1" stop-color="#F32852"/>
        </linearGradient>
        <linearGradient id="paint1_linear_2023_24" x1="58.1109" y1="21.543" x2="236.559" y2="239.238" gradientUnits="userSpaceOnUse">
            <stop stop-color="#00D38C"/>
            <stop offset="0.52" stop-color="#00D38C"/>
            <stop offset="1" stop-color="#016342"/>
        </linearGradient>
        <linearGradient id="paint2_linear_2023_24" x1="242.745" y1="221.948" x2="255.726" y2="453.397" gradientUnits="userSpaceOnUse">
            <stop stop-color="#F35273"/>
            <stop offset="0.52" stop-color="#F32852"/>
            <stop offset="1" stop-color="#AF1A39"/>
        </linearGradient>
        <linearGradient id="paint3_linear_2023_24" x1="70.8709" y1="113.432" x2="-39.5784" y2="275.833" gradientUnits="userSpaceOnUse">
            <stop stop-color="#1FAF7F"/>
            <stop offset="0.52" stop-color="#00D38C"/>
            <stop offset="1" stop-color="#01130D"/>
        </linearGradient>
        <radialGradient id="paint4_radial_2023_24" cx="0" cy="0" r="1" gradientUnits="userSpaceOnUse" gradientTransform="translate(336.927 227.417) scale(110.891 110.891)">
            <stop offset="0.03" stop-color="#B0633E"/>
            <stop offset="0.34" stop-color="#FBAE25"/>
            <stop offset="0.69" stop-color="#F16522"/>
            <stop offset="1" stop-color="#EE4036"/>
        </radialGradient>
        <radialGradient id="paint5_radial_2023_24" cx="0" cy="0" r="1" gradientUnits="userSpaceOnUse" gradientTransform="translate(117.713 85.1498) scale(197.201 197.201)">
            <stop stop-color="white"/>
            <stop offset="0.36" stop-color="#00D38C"/>
            <stop offset="0.73" stop-color="#00D38C"/>
            <stop offset="1" stop-color="#00D38C"/>
        </radialGradient>
        <radialGradient id="paint6_radial_2023_24" cx="0" cy="0" r="1" gradientUnits="userSpaceOnUse" gradientTransform="translate(856.659 319.318) rotate(90) scale(77.3182 353.659)">
            <stop stop-color="#079E6B"/>
            <stop offset="1" stop-color="#01D38C"/>
        </radialGradient>
    </defs>
</svg>
