<svg width="110" height="55" viewBox="0 0 110 55" fill="none" xmlns="http://www.w3.org/2000/svg">
    <path d="M3.70444 45.7855L11.4061 1.44117C11.472 1.03804 11.736 0.769287 12.1302 0.769287H27.4031C35.8949 0.769287 39.7135 5.47248 39.7135 13.4007C39.7135 19.0445 37.7391 32.079 35.0388 37.5885C31.814 44.3745 26.8769 46.4574 19.5695 46.4574H4.29657C3.90236 46.4574 3.63846 46.1886 3.70444 45.7855ZM12.1302 39.3355C12.0642 39.6042 12.1962 39.7386 12.4601 39.7386H19.0433C23.7824 39.7386 26.9429 37.9916 28.9834 33.826C30.5636 30.4666 32.6041 18.9773 32.6041 14.8789C32.6041 9.57096 29.7075 7.48812 24.5725 7.48812H17.9893C17.7254 7.48812 17.6611 7.62251 17.5951 7.89126L12.1302 39.3355Z" fill="white"/>
    <path d="M57.6683 46.4574H54.0289C53.7971 46.4574 53.6127 46.2694 53.6601 45.9871L53.9359 44.2469H53.8902C52.6449 45.846 50.4793 46.9747 47.3932 46.9747C43.9366 46.9747 41.3091 44.7642 41.3091 41.0958C41.3091 35.7811 44.9501 32.9592 51.1713 32.9592H55.5026C55.687 32.9592 55.8257 32.8653 55.8714 32.6771L56.0559 31.4072C56.5617 28.6794 55.687 27.5506 52.046 27.5506C49.6503 27.5506 47.9922 28.3032 46.84 29.1497C46.5625 29.3378 46.3324 29.2908 46.241 29.0556L45.1345 26.0927C45.0432 25.8574 45.1345 25.6224 45.3189 25.4812C47.2088 24.1643 50.1578 23.2708 53.2456 23.2708C59.5581 23.2708 61.7238 25.5753 60.756 31.1251L58.1758 45.9871C58.1284 46.2694 57.9457 46.4574 57.6683 46.4574ZM49.3271 42.9301C52.3692 42.9301 54.3504 41.5661 54.7649 38.9324L55.0881 37.004C55.1338 36.816 55.0424 36.7219 54.858 36.7219H51.31C47.5303 36.7219 46.1023 38.0387 46.1023 40.4374C46.1023 41.9894 47.1615 42.9301 49.3271 42.9301ZM67.4831 54.9232H63.4749C63.1975 54.9232 63.0131 54.735 63.0604 54.4529L68.2665 24.2584C68.3138 23.9763 68.4982 23.7881 68.774 23.7881H72.7821C73.0596 23.7881 73.1984 23.9763 73.151 24.2584L72.8295 26.0456H72.8752C74.2119 24.4466 76.1931 23.2708 79.0964 23.2708C83.2433 23.2708 85.5934 26.1868 85.5934 30.7487C85.5934 33.7588 84.7644 38.8853 83.3347 41.8014C81.5379 45.4698 78.8189 46.9747 75.1322 46.9747C72.0919 46.9747 70.4321 45.658 69.7418 44.1528H69.6961L67.945 54.4529C67.8976 54.735 67.7605 54.9232 67.4831 54.9232ZM74.4419 42.5538C76.5162 42.5538 78.083 41.472 79.0507 39.4497C79.8798 37.7566 80.6174 33.7588 80.6174 31.7836C80.6174 29.1497 79.6023 27.6917 77.0678 27.6917C74.9952 27.6917 73.4285 28.7264 72.4607 30.7958C71.6774 32.395 70.894 36.4396 70.894 38.4621C70.894 41.0488 71.9075 42.5538 74.4419 42.5538ZM91.5371 54.9232H87.5289C87.2514 54.9232 87.0687 54.735 87.1144 54.4529L92.3204 24.2584C92.3678 23.9763 92.5523 23.7881 92.828 23.7881H96.8379C97.1137 23.7881 97.2524 23.9763 97.205 24.2584L96.8836 26.0456H96.9292C98.2658 24.4466 100.247 23.2708 103.15 23.2708C107.297 23.2708 109.647 26.1868 109.647 30.7487C109.647 33.7588 108.818 38.8853 107.389 41.8014C105.592 45.4698 102.873 46.9747 99.188 46.9747C96.1459 46.9747 94.4861 45.658 93.7958 44.1528H93.7501L91.999 54.4529C91.9533 54.735 91.8146 54.9232 91.5371 54.9232ZM98.496 42.5538C100.57 42.5538 102.137 41.472 103.105 39.4497C103.934 37.7566 104.671 33.7588 104.671 31.7836C104.671 29.1497 103.656 27.6917 101.122 27.6917C99.0492 27.6917 97.4825 28.7264 96.5147 30.7958C95.7313 32.395 94.948 36.4396 94.948 38.4621C94.948 41.0488 95.9615 42.5538 98.496 42.5538Z" fill="white"/>
    <path fill-rule="evenodd" clip-rule="evenodd" d="M1.96006 15.1035H24.3086L22.5219 21.8223H0.171692L1.96006 15.1035Z" fill="#00D38C"/>
    <path opacity="0.722075" d="M48.701 16.9797L50.7516 2.86955C50.7685 2.74127 50.8379 2.65576 50.9445 2.65576H55.3063C57.2164 2.65576 58.46 4.02401 58.46 6.11914C58.46 8.49219 57.2503 10.3094 55.533 10.9722L57.0049 16.9156C57.0574 17.0652 56.988 17.1934 56.8831 17.1934H55.3063C55.1658 17.1934 55.1134 17.1293 55.0778 16.9797L53.6939 11.2501H51.5925C51.5214 11.2501 51.469 11.2929 51.469 11.3783L50.6467 16.9797C50.6281 17.108 50.5587 17.1934 50.4708 17.1934H48.8584C48.7535 17.1934 48.6841 17.108 48.701 16.9797ZM51.8903 9.11219H54.3249C55.533 9.09081 56.4805 8.12875 56.4805 6.4612C56.4805 5.43502 55.8849 4.79365 54.956 4.79365H52.5214C52.4503 4.79365 52.4148 4.8364 52.3979 4.92191L51.8023 8.98391C51.7854 9.06944 51.8192 9.11219 51.8903 9.11219ZM62.7338 17.4285C60.7018 17.4285 59.668 16.039 59.668 13.6873C59.668 12.4687 59.8964 10.566 60.3516 9.43288C61.052 7.6798 62.2431 6.65362 64.0822 6.65362C65.764 6.65362 67.0431 7.91496 67.0431 10.2666C67.0431 10.8225 66.9907 11.4425 66.8164 12.5542C66.7978 12.6824 66.7115 12.7681 66.6066 12.7681H61.5951C61.5257 12.7681 61.4902 12.8107 61.4733 12.8963C61.4378 13.0459 61.4378 13.1742 61.4378 13.3238C61.4378 14.8631 62.0164 15.4189 63.0671 15.4189C63.8725 15.4189 64.6608 14.9273 65.1684 14.35C65.275 14.2431 65.3613 14.2646 65.4324 14.35L66.1853 15.3548C66.2547 15.4617 66.2546 15.59 66.1684 15.6969C65.3613 16.659 64.1702 17.4285 62.7338 17.4285ZM61.8405 11.0576H65.0636C65.1346 11.0576 65.1871 11.0148 65.204 10.9294C65.2395 10.7156 65.2564 10.4591 65.2564 10.288C65.2564 9.11219 64.7488 8.57772 63.8369 8.57772C63.0502 8.57772 62.3835 9.04805 62.0333 9.94597C61.9284 10.2239 61.8235 10.5873 61.7711 10.9294C61.7524 11.0148 61.7711 11.0576 61.8405 11.0576ZM72.1425 17.1934H70.811C70.7044 17.1934 70.635 17.108 70.6181 16.9797L69.1631 7.10257C69.1631 6.97429 69.1986 6.88878 69.3204 6.88878H70.8635C70.9498 6.88878 71.0208 6.95292 71.0377 7.10257L71.8786 13.9652H71.9142L74.6991 7.10257C74.7515 6.95292 74.8225 6.88878 74.9274 6.88878H76.5568C76.6617 6.88878 76.731 6.97429 76.6786 7.10257L72.3693 16.9797C72.3168 17.108 72.2644 17.1934 72.1425 17.1934ZM80.7256 4.85778H79.1843C79.0794 4.85778 79.027 4.77226 79.0439 4.64399L79.3247 2.86955C79.3416 2.74127 79.4127 2.65576 79.5176 2.65576H81.042C81.1469 2.65576 81.1994 2.74127 81.1808 2.86955L80.9185 4.64399C80.9016 4.77226 80.8305 4.85778 80.7256 4.85778ZM78.9559 17.1934H77.4332C77.3266 17.1934 77.2572 17.108 77.2742 16.9797L78.7106 7.10257C78.7292 6.97429 78.7985 6.88878 78.9034 6.88878H80.4279C80.5328 6.88878 80.5852 6.97429 80.5683 7.10257L79.1319 16.9797C79.115 17.108 79.0625 17.1934 78.9559 17.1934ZM85.2109 17.4285C83.1789 17.4285 82.1452 16.039 82.1452 13.6873C82.1452 12.4687 82.3736 10.566 82.8287 9.43288C83.5292 7.6798 84.7203 6.65362 86.5594 6.65362C88.2411 6.65362 89.5202 7.91496 89.5202 10.2666C89.5202 10.8225 89.4678 11.4425 89.2935 12.5542C89.2749 12.6824 89.1869 12.7681 89.082 12.7681H84.0722C84.0012 12.7681 83.9674 12.8107 83.9487 12.8963C83.9149 13.0459 83.9149 13.1742 83.9149 13.3238C83.9149 14.8631 84.4919 15.4189 85.5443 15.4189C86.3496 15.4189 87.138 14.9273 87.6456 14.35C87.7505 14.2431 87.8385 14.2646 87.9095 14.35L88.6624 15.3548C88.7318 15.4617 88.7318 15.59 88.6438 15.6969C87.8385 16.659 86.6474 17.4285 85.2109 17.4285ZM84.3176 11.0576H87.5407C87.6118 11.0576 87.6642 11.0148 87.6811 10.9294C87.7166 10.7156 87.7336 10.4591 87.7336 10.288C87.7336 9.11219 87.226 8.57772 86.3141 8.57772C85.5256 8.57772 84.8607 9.04805 84.5105 9.94597C84.4056 10.2239 84.3007 10.5873 84.2465 10.9294C84.2296 11.0148 84.2465 11.0576 84.3176 11.0576ZM99.3317 17.1934H98.0002C97.8953 17.1934 97.8242 17.108 97.8242 16.9797L97.2455 10.117H97.2117L94.5842 16.9797C94.5317 17.108 94.4606 17.1934 94.3557 17.1934H93.0073C92.9024 17.1934 92.8499 17.108 92.8313 16.9797L91.7096 7.10257C91.6927 6.97429 91.7451 6.88878 91.8686 6.88878H93.305C93.4269 6.88878 93.498 6.95292 93.5149 7.10257L94.0749 14.1148H94.1104L96.738 7.10257C96.7904 6.97429 96.8615 6.88878 96.9664 6.88878H98.21C98.3149 6.88878 98.3859 6.97429 98.4028 7.10257L99.0153 14.1148H99.0339L101.574 7.10257C101.626 6.95292 101.678 6.88878 101.802 6.88878H103.448C103.536 6.88878 103.589 6.97429 103.536 7.10257L99.5584 16.9797C99.506 17.108 99.4366 17.1934 99.3317 17.1934Z" fill="white"/>
</svg>
